# xmcd CD database file generated by Grip 2.95
# 
# Track frame offsets:
#       182
#       14927
#       34262
#       58932
#       83072
#       98182
#       116170
#       137417
#       151987
#       167655
#       188727
#       214780
#       217005
# 
# Disc length: 3233 seconds
# 
# Revision: 3
# Processed by: cddbd v1.4PL0 Copyright (c) Steve Scherf et al.
# Submitted via: Grip 2.95
# 
DISCID=bb0c9f0d
DTITLE=Toshi Reagon - Toshi
DYEAR=1900
DGENRE=
TTITLE0=Little Light
TTITLE1=Slippin Away
TTITLE2=Mountain Top
TTITLE3=Big Love
TTITLE4=I Hate - I Love
TTITLE5=Positive Information
TTITLE6=Ballad of the Broken Word
TTITLE7=Oh No No No
TTITLE8=The Ones Who Love You
TTITLE9=You Are the Only One
TTITLE10=Somethin Good
TTITLE11=Somespace
TTITLE12=Just What I Needed
EXTD=
EXTT0=
EXTT1=
EXTT2=
EXTT3=
EXTT4=
EXTT5=
EXTT6=
EXTT7=
EXTT8=
EXTT9=
EXTT10=
EXTT11=
EXTT12=
PLAYORDER=
